<svg width="13" height="13" viewBox="0 0 13 13" fill="none" xmlns="http://www.w3.org/2000/svg">
<path d="M10.3475 1.85036L2.36549 5.15083C2.0292 5.28987 1.8041 5.60174 1.77797 5.96468C1.75187 6.32765 1.93003 6.66853 2.24293 6.85427L4.53057 8.13766C4.88071 7.78753 7.58233 5.86279 7.58233 5.86279C7.58233 5.86279 5.65759 8.56441 5.30745 8.91455L6.59083 11.2022C6.77658 11.5151 7.11745 11.6933 7.48042 11.6671C7.84409 11.641 8.15547 11.4153 8.29428 11.0796L11.5948 3.09756C11.745 2.73414 11.6656 2.33564 11.3876 2.05756C11.1095 1.77948 10.711 1.70006 10.3475 1.85036Z" fill="white"/>
</svg>
