<svg width="17" height="17" viewBox="0 0 17 17" fill="none" xmlns="http://www.w3.org/2000/svg">
<path fill-rule="evenodd" clip-rule="evenodd" d="M8.50007 1.70007C4.74449 1.70007 1.70007 4.74449 1.70007 8.50007C1.70007 12.2556 4.74449 15.3001 8.50007 15.3001C12.2549 15.3001 15.3001 12.2556 15.3001 8.49937C15.3001 4.74449 12.2549 1.70007 8.50007 1.70007ZM8.50009 13.8827C5.52722 13.8827 3.11676 11.473 3.11676 8.4994C3.11676 5.52581 5.52651 3.11678 8.50009 3.11678C11.473 3.11678 13.8842 5.52653 13.8842 8.50011C13.8842 11.4737 11.473 13.8827 8.50009 13.8827ZM7.79169 7.08341C7.79169 7.76838 7.3164 8.323 6.7299 8.323C6.14269 8.323 5.66669 7.76838 5.66669 7.08341C5.66669 6.39846 6.14269 5.84383 6.72919 5.84383C7.31569 5.84383 7.79169 6.39846 7.79169 7.08341ZM10.2708 8.323C10.8581 8.323 11.3333 7.76838 11.3333 7.08341C11.3333 6.39846 10.8573 5.84383 10.2708 5.84383C9.68437 5.84383 9.20837 6.39916 9.20837 7.08341C9.20837 7.76766 9.68437 8.323 10.2708 8.323ZM10.8609 9.673C10.9976 9.41588 11.3178 9.31458 11.5749 9.44633C11.8341 9.5795 11.9389 9.8933 11.8086 10.1533C11.774 10.2234 10.9268 11.8639 8.50072 11.8639C6.07538 11.8639 5.2268 10.2241 5.19138 10.154C5.06034 9.89117 5.16659 9.57242 5.42868 9.44067C5.69218 9.30963 6.00668 9.41517 6.13984 9.67371C6.16959 9.72967 6.76459 10.8014 8.50072 10.8014C10.2453 10.8014 10.8368 9.71975 10.8609 9.673Z" fill="#8A9099"/>
</svg>
