<svg width="17" height="17" viewBox="0 0 17 17" fill="none" xmlns="http://www.w3.org/2000/svg">
<path fill-rule="evenodd" clip-rule="evenodd" d="M10.9205 2.86579C10.4424 2.86579 9.98317 3.05791 9.64403 3.40104L4.16411 8.94533C3.60108 9.51498 3.28415 10.2883 3.28415 11.0954C3.28415 11.9025 3.60108 12.6759 4.16411 13.2455C4.72703 13.815 5.48977 14.1344 6.28434 14.1344C7.07892 14.1344 7.84166 13.815 8.40457 13.2455L13.8845 7.70121C14.1101 7.47291 14.4771 7.47181 14.7041 7.69875C14.9311 7.92568 14.9322 8.29473 14.7065 8.52303L9.22662 14.0673C8.44688 14.8562 7.38858 15.3001 6.28434 15.3001C5.18011 15.3001 4.12181 14.8562 3.34206 14.0673C2.56243 13.2785 2.12506 12.2094 2.12506 11.0954C2.12506 9.9814 2.56243 8.91231 3.34206 8.12352L8.82198 2.57922C9.37795 2.01672 10.1327 1.70007 10.9205 1.70007C11.7083 1.70007 12.4631 2.01672 13.019 2.57922C13.5749 3.14161 13.8865 3.90362 13.8865 4.69746C13.8865 5.49129 13.5749 6.25331 13.019 6.8157L7.53316 12.36C7.53308 12.3601 7.53323 12.3599 7.53316 12.36C7.20099 12.6959 6.74957 12.8855 6.27838 12.8855C5.80708 12.8855 5.3558 12.6961 5.0236 12.36C4.69153 12.024 4.50559 11.5691 4.50559 11.0954C4.50559 10.6218 4.69153 10.1668 5.0236 9.83085L10.0864 4.71465C10.3121 4.48648 10.6791 4.4856 10.906 4.71267C11.1328 4.93974 11.1337 5.30878 10.9079 5.53695L5.84565 10.6527C5.73017 10.7695 5.66468 10.9287 5.66468 11.0954C5.66468 11.2621 5.73017 11.4213 5.84565 11.5382C5.96101 11.6549 6.11674 11.7198 6.27838 11.7198C6.44002 11.7198 6.59575 11.6549 6.71111 11.5382L12.197 5.99388C12.5362 5.65064 12.7275 5.18437 12.7275 4.69746C12.7275 4.21055 12.5362 3.74428 12.197 3.40104C11.8578 3.05791 11.3986 2.86579 10.9205 2.86579Z" fill="#8A9099"/>
</svg>
